<svg width="361" height="184" viewBox="0 0 361 184" fill="none" xmlns="http://www.w3.org/2000/svg">
<g clip-path="url(#clip0_1294_14518)">
<path opacity="0.3" d="M241.827 13.8625C277.409 25.3883 311.248 57.1416 312.174 98.2507C313.1 139.36 301.196 181.287 236.261 197.676C175.27 213.073 23.1719 223.279 -7.84672 167.951C-38.8653 112.623 -32.3305 41.6248 31.2859 16.4468C75.886 -1.19628 172.329 -8.633 241.827 13.8625Z" fill="#E6E6E6"/>
<path d="M42.5488 140.7L30.1326 148.399L44.5092 162.269C44.5092 162.269 57.9383 153.426 61.2057 152.979C64.4731 152.532 71.302 156.621 76.715 152.979C82.128 149.337 83.6963 137.822 83.6963 137.822C83.6963 137.822 70.9426 130.799 42.5488 140.7Z" fill="#F4A28C"/>
<path d="M214.979 144.179L113.395 140.014L104.987 121.433L152.952 51.3732L214.979 144.179Z" fill="#E6E6E6"/>
<path d="M115.841 138.688C117.232 138.056 116.494 133.422 114.191 128.338C111.888 123.254 108.894 119.644 107.502 120.276C106.111 120.907 106.849 125.541 109.152 130.625C111.455 135.71 114.449 139.32 115.841 138.688Z" fill="#55789B"/>
<path d="M93.3973 130.173L45.8141 151.774L51.5305 164.396L99.1137 142.796L93.3973 130.173Z" fill="#55789B"/>
<path d="M93.3973 130.173L45.8141 151.774L51.5305 164.396L99.1137 142.796L93.3973 130.173Z" fill="#24285B"/>
<path d="M99.8127 144.376L117.337 140.254L107.328 118.14L92.6788 128.619L99.8127 144.376Z" fill="#55789B"/>
<path d="M117.338 140.254L99.8138 144.376L94.1611 131.89L92.6908 128.619L107.34 118.129L115.617 136.426L117.338 140.254Z" fill="#FFD200"/>
<path opacity="0.08" d="M117.338 140.254L99.8135 144.376L94.1609 131.89C95.1555 132.528 96.201 133.082 97.2867 133.548C101.669 135.264 106.326 136.169 111.032 136.219C112.524 136.295 114.07 136.328 115.606 136.426L117.338 140.254Z" fill="black"/>
<path d="M207.823 144.572C242.458 144.572 270.535 116.461 270.535 81.7853C270.535 47.1091 242.458 18.9985 207.823 18.9985C173.188 18.9985 145.11 47.1091 145.11 81.7853C145.11 116.461 173.188 144.572 207.823 144.572Z" fill="#C9C9C9"/>
<path d="M207.824 126.94C232.733 126.94 252.925 106.724 252.925 81.7854C252.925 56.8472 232.733 36.6308 207.824 36.6308C182.916 36.6308 162.723 56.8472 162.723 81.7854C162.723 106.724 182.916 126.94 207.824 126.94Z" fill="#E6E6E6"/>
<path d="M207.823 110.256C223.528 110.256 236.26 97.509 236.26 81.7848C236.26 66.0607 223.528 53.3138 207.823 53.3138C192.117 53.3138 179.385 66.0607 179.385 81.7848C179.385 97.509 192.117 110.256 207.823 110.256Z" fill="#C9C9C9"/>
<path d="M207.823 94.0743C214.602 94.0743 220.097 88.5723 220.097 81.7852C220.097 74.9982 214.602 69.4961 207.823 69.4961C201.044 69.4961 195.548 74.9982 195.548 81.7852C195.548 88.5723 201.044 94.0743 207.823 94.0743Z" fill="#E6E6E6"/>
<path d="M40.6528 141.944L41.1756 141.606C44.149 139.698 58.9612 130.396 65.8881 129.458C73.5992 128.368 88.1501 136.001 87.6708 141.944C87.1916 147.887 74.4596 139.414 74.4596 139.414C74.4596 139.414 67.3367 152.194 56.2057 148.475" fill="#F4A28C"/>
<path d="M87.8873 155.487C88.2249 155.138 88.5407 154.778 88.8457 154.397C90.7953 151.91 91.8844 148.29 89.1724 145.891C87.9547 144.902 86.5482 144.171 85.0389 143.743C83.5296 143.316 81.9492 143.201 80.394 143.405C78.9671 143.675 77.5874 144.152 76.2989 144.823C72.2785 146.911 68.7908 149.895 66.1046 153.546C65.103 154.788 64.3621 156.22 63.9263 157.755C63.556 159.162 64.5035 160.318 65.5709 161.223C69.873 164.876 75.5691 162.924 80.0237 160.721C82.9287 159.447 85.5897 157.676 87.8873 155.487Z" fill="#F4A28C"/>
<path d="M47.633 162.302L17.2243 194.154L4.93887 185.31L-10.2546 174.406L31.7425 144.212C31.7425 144.212 37.0575 150.755 41.3923 156C44.2676 159.467 46.7072 162.335 46.8379 162.335L47.633 162.302Z" fill="#55789B"/>
<path opacity="0.08" d="M47.6336 162.302L17.225 194.153L4.93951 185.31L41.3929 155.967C44.2682 159.434 46.7079 162.302 46.8386 162.302H47.6336Z" fill="black"/>
</g>
<defs>
<clipPath id="clip0_1294_14518">
<path d="M0 0H361V184H16C7.16345 184 0 176.837 0 168V0Z" fill="white"/>
</clipPath>
</defs>
</svg>
