<svg width="364" height="317" viewBox="0 0 364 317" fill="none" xmlns="http://www.w3.org/2000/svg">
<path d="M319.094 145.338L318.484 145.736L318.947 144.992L319.094 145.338Z" fill="#E6E6E6"/>
<path opacity="0.45" d="M174.913 286.684C254.542 286.684 319.094 282.817 319.094 278.047C319.094 273.277 254.542 269.41 174.913 269.41C95.2835 269.41 30.7314 273.277 30.7314 278.047C30.7314 282.817 95.2835 286.684 174.913 286.684Z" fill="#E6E6E6"/>
<path d="M279.164 152.224C279.812 153.122 280.239 154.16 280.409 155.253C280.58 156.346 280.49 157.464 280.146 158.516C279.802 159.568 279.214 160.524 278.43 161.307C277.645 162.09 276.687 162.677 275.633 163.02C270.684 164.687 262.771 165.892 252.042 163.02C232.518 157.78 225.709 125.37 225.709 125.37C225.709 125.37 222.031 119.92 224.784 117.582C227.537 115.245 229.776 123.777 229.776 123.777C229.776 123.777 233.811 139.321 248.385 145.002C260.228 149.614 273.5 144.426 279.164 152.224Z" fill="#F4A28C"/>
<path opacity="0.09" d="M279.164 152.224C279.812 153.122 280.239 154.16 280.409 155.253C280.58 156.346 280.49 157.464 280.146 158.516C279.802 159.568 279.214 160.524 278.43 161.307C277.645 162.09 276.687 162.677 275.633 163.02C270.684 164.687 262.771 165.892 252.042 163.02C232.518 157.78 225.709 125.37 225.709 125.37C225.709 125.37 222.031 119.92 224.784 117.582C227.537 115.245 229.776 123.777 229.776 123.777C229.776 123.777 233.811 139.321 248.385 145.002C260.228 149.614 273.5 144.426 279.164 152.224Z" fill="black"/>
<path d="M284.039 221.194L265.124 271.391L261.404 271.181L267.898 218.71L284.039 221.194Z" fill="#F4A28C"/>
<path d="M297.258 215.722L292.855 236.392L307.346 226.299L309.836 229.548C309.836 229.548 294.894 251.035 284.049 247.859C273.205 244.683 282.032 211.236 282.032 211.236L297.258 215.722Z" fill="#F4A28C"/>
<path d="M278.89 129.375L282.715 146.491L273.1 147.917L274.182 134.888L278.89 129.375Z" fill="#F4A28C"/>
<path opacity="0.31" d="M273.825 137.728C275.017 137.344 276.067 136.614 276.841 135.632C276.841 135.632 276.904 138.839 273.573 142.225L273.825 137.728Z" fill="#CE8172"/>
<path d="M269.023 129.301C269.127 132.275 269.629 135.222 270.515 138.064C270.643 138.394 270.835 138.697 271.08 138.953C271.325 139.21 271.619 139.415 271.944 139.558C272.269 139.702 272.619 139.779 272.975 139.787C273.33 139.795 273.683 139.733 274.014 139.604C275.104 139.253 276.07 138.595 276.795 137.71C277.52 136.825 277.974 135.751 278.102 134.615L279.153 129.783C279.258 128.793 279.053 127.794 278.566 126.925C278.078 126.055 277.333 125.358 276.431 124.93C273.163 123.138 268.76 126.041 269.023 129.301Z" fill="#F4A28C"/>
<path d="M275.233 133.232C275.233 133.232 275.033 131.135 276.588 131.135C278.144 131.135 278.459 134.07 276.399 134.594L275.233 133.232Z" fill="#F4A28C"/>
<path d="M269.307 132.666L268.088 134.888C268.017 135.014 267.979 135.157 267.978 135.302C267.976 135.447 268.012 135.59 268.081 135.718C268.151 135.846 268.251 135.954 268.374 136.032C268.496 136.111 268.636 136.157 268.782 136.166L270.883 136.303L269.307 132.666Z" fill="#F4A28C"/>
<path d="M273.101 147.906C273.101 147.906 249.71 156.711 256.067 172.779C260.67 184.414 266.817 182.276 268.361 191.552L269.99 200.682L293.791 193.596C293.791 193.596 290.996 180.232 292.54 171.364C294.085 162.497 298.793 140.443 273.101 147.906Z" fill="#55789B"/>
<path opacity="0.09" d="M279.363 153.074C279.363 153.074 270.285 165.767 278.313 178.733C279.668 180.924 280.866 183.23 282.022 185.536L287.066 195.619L293.812 193.606L292.877 187.999L279.363 153.074Z" fill="black"/>
<path d="M276.589 131.135C276.589 131.135 272.449 147.675 277.997 149.918C283.546 152.161 292.572 150.233 292.814 143.388C293.055 136.544 286.267 135.831 284.87 126.513C283.472 117.194 265.608 120.423 266.197 125.81C266.785 131.198 276.589 131.135 276.589 131.135Z" fill="#FFD200"/>
<path d="M293.791 193.606L269.99 200.692L265.545 228.615L297.447 228.207C297.447 228.207 305.633 207.243 293.791 193.606Z" fill="#24285B"/>
<path d="M261.678 271.192C261.678 271.192 259.482 273.676 256.865 273.393C254.249 273.11 253.65 276.8 257.916 276.653C259.236 276.615 260.55 276.467 261.846 276.213C263.038 276.006 264.263 276.118 265.398 276.538C265.62 276.6 265.856 276.594 266.075 276.521C266.294 276.448 266.487 276.312 266.627 276.129C267.909 274.787 265.145 271.391 265.145 271.391L261.678 271.192Z" fill="#55789B"/>
<path d="M309.5 229.663C309.5 229.663 312.81 229.778 314.27 231.969C315.731 234.16 318.947 232.262 316.13 229.097C315.265 228.102 314.312 227.186 313.283 226.361C312.367 225.569 311.672 224.555 311.265 223.416C311.179 223.21 311.032 223.035 310.845 222.914C310.658 222.792 310.438 222.73 310.214 222.735C308.365 222.598 307.388 226.34 307.388 226.34L309.5 229.663Z" fill="#55789B"/>
<path d="M101.01 271.286C101.01 271.286 102.67 273.959 105.339 273.613C108.008 273.267 109.227 275.709 107.021 276.852C104.814 277.994 98.0992 276.296 98.0992 276.296L97.29 271.475L101.01 271.286Z" fill="#55789B"/>
<path d="M117.035 158.922C117.035 158.922 143.473 142.005 153.466 124.48L150.103 120.79C150.103 120.79 127.374 140.852 107.451 144.311L117.035 158.922Z" fill="#F4A28C"/>
<path d="M153.466 124.48C153.519 124.48 155.568 121.912 155.641 121.733C156.465 120.594 156.98 119.262 157.133 117.866C157.092 117.052 156.827 116.266 156.367 115.593C155.908 114.92 155.271 114.386 154.527 114.05C154.206 113.853 153.83 113.76 153.453 113.787C153.076 113.813 152.717 113.956 152.426 114.197C152.241 114.419 152.101 114.676 152.016 114.952C151.795 115.545 151.609 116.15 151.459 116.765C151.352 116.306 151.197 115.86 150.997 115.434C150.913 115.256 150.797 115.057 150.597 115.025C150.504 115.015 150.41 115.035 150.328 115.082C150.247 115.129 150.183 115.201 150.146 115.287C150.073 115.46 150.038 115.645 150.04 115.832C149.988 116.88 149.914 117.929 149.883 118.977C149.91 119.354 149.962 119.728 150.04 120.098C150.04 120.234 150.04 120.685 150.146 120.8L153.466 124.48Z" fill="#F4A28C"/>
<path d="M81.1919 166.301C90.7858 169.561 106.411 171.238 123.109 158.031L118.622 138.965C118.622 138.965 91.7736 142.665 78.691 153.639C77.6918 154.494 76.938 155.597 76.5068 156.838C76.0756 158.078 75.9824 159.41 76.2368 160.698C76.4912 161.986 77.0841 163.184 77.9547 164.168C78.8253 165.153 79.9425 165.889 81.1919 166.301Z" fill="#55789B"/>
<path opacity="0.46" d="M81.1919 166.301C90.7858 169.561 106.411 171.238 123.109 158.031L118.622 138.965C118.622 138.965 91.7736 142.665 78.691 153.639C77.6918 154.494 76.938 155.597 76.5068 156.838C76.0756 158.078 75.9824 159.41 76.2368 160.698C76.4912 161.986 77.0841 163.184 77.9547 164.168C78.8253 165.153 79.9425 165.889 81.1919 166.301Z" fill="white"/>
<path d="M97.3843 126.702C98.2389 129.118 98.762 131.639 98.9395 134.196C98.9395 134.811 98.6952 135.402 98.26 135.838C97.8247 136.274 97.2341 136.52 96.6172 136.523C95.6327 136.58 94.6525 136.354 93.7935 135.871C92.9346 135.387 92.2331 134.668 91.773 133.798L89.4507 130.244C89.0545 129.484 88.9054 128.619 89.024 127.77C89.1426 126.921 89.5231 126.13 90.1127 125.507C92.1408 123.044 96.5857 124.008 97.3843 126.702Z" fill="#F4A28C"/>
<path d="M89.8496 130.884L91.2787 145.915L99.5275 144.531L95.1772 134.154L89.8496 130.884Z" fill="#F4A28C"/>
<path d="M96.323 127.173C94.9396 127.512 93.5356 127.761 92.1198 127.918C92.6753 128.423 93.0707 129.079 93.2573 129.805C93.444 130.531 93.4139 131.296 93.1706 132.005C92.9354 132.686 92.4731 133.266 91.8611 133.647C91.2491 134.029 90.5244 134.189 89.808 134.102C89.5883 133.439 89.4231 132.758 89.3141 132.068C89.0409 131.293 88.6206 130.433 87.7484 130.234C87.2037 130.221 86.6617 130.155 86.1302 130.035C85.9664 129.955 85.8216 129.841 85.7055 129.701C85.5893 129.56 85.5046 129.397 85.4568 129.221C85.4091 129.046 85.3995 128.862 85.4286 128.682C85.4578 128.503 85.525 128.331 85.6258 128.18C85.9411 127.76 86.54 127.467 86.519 126.953C86.498 126.44 86.0041 126.241 85.6784 125.905C85.3892 125.578 85.2016 125.174 85.1381 124.742C85.0747 124.31 85.1383 123.87 85.3211 123.473C85.706 122.689 86.267 122.004 86.9603 121.471C87.0986 121.383 87.1967 121.243 87.2336 121.084C87.2336 120.842 87.0129 120.685 86.8553 120.507C86.6837 120.275 86.5912 119.994 86.5912 119.705C86.5912 119.417 86.6837 119.136 86.8553 118.903C87.2099 118.431 87.6905 118.068 88.2423 117.855C89.7059 117.26 91.2568 116.906 92.8343 116.807C93.5376 116.681 94.2618 116.738 94.936 116.975C95.2598 117.095 95.5366 117.316 95.7257 117.604C95.9148 117.893 96.0063 118.234 95.9868 118.578C95.8922 119.228 95.2617 119.784 95.3878 120.434C95.5139 121.084 96.3545 121.346 97.0376 121.356C97.7234 121.248 98.4249 121.401 99.0026 121.786C99.7066 122.467 99.1392 123.798 98.204 124.102C98.0188 124.144 97.8438 124.223 97.6891 124.333C97.4159 124.584 97.5314 125.056 97.7521 125.381C98.0084 125.66 98.1987 125.994 98.309 126.356C98.4246 127.215 97.0586 127.006 96.5647 127.09L96.323 127.173Z" fill="#FFD200"/>
<path d="M93.6545 131.743C93.6545 131.743 93.1817 130.034 91.9207 130.506C90.6597 130.978 91.3322 133.441 93.1501 133.221L93.6545 131.743Z" fill="#F4A28C"/>
<path d="M98.2147 129.49L99.9065 130.894C100.001 130.973 100.075 131.075 100.12 131.19C100.165 131.304 100.18 131.428 100.164 131.551C100.149 131.673 100.102 131.789 100.03 131.889C99.9571 131.988 99.8605 132.068 99.7489 132.121L98.1201 132.886L98.2147 129.49Z" fill="#F4A28C"/>
<path opacity="0.31" d="M96.2285 136.376C95.1551 136.384 94.1028 136.078 93.2021 135.496C94.0547 137.506 95.6391 139.121 97.6366 140.013L96.2285 136.376Z" fill="#CE8172"/>
<path d="M69.8214 154.552C72.1833 150.324 75.823 146.949 80.2214 144.907C84.6198 142.865 89.5524 142.26 94.3157 143.179L97.962 143.85C97.962 143.85 123.717 147.613 122.131 171.28C120.941 185.911 115.763 199.938 107.157 211.844L72.3854 207.903C72.3854 207.903 59.2398 174.11 69.8214 154.552Z" fill="#55789B"/>
<path d="M102.06 271.59L107.157 211.844L72.3857 207.903L60.9004 272.156H67.3839L89.125 230.47C89.3772 228.29 96.0919 272.156 96.0919 272.156L102.06 271.59Z" fill="#24285B"/>
<path opacity="0.08" d="M87.6436 154.594C87.6436 154.594 89.9554 172.695 85.605 189.236C81.2547 205.776 85.605 209.444 85.605 209.444L72.3859 207.945C72.3859 207.945 69.4856 200.608 68.9602 196.887C68.4348 193.166 68.7501 152.455 87.6436 154.594Z" fill="black"/>
<path d="M70.9775 164.96C78.0915 172.161 91.3211 180.63 112.169 176.259L109.5 153.273C109.5 153.273 91.0374 148.545 74.4347 152.581C73.1666 152.9 72.0058 153.549 71.0699 154.46C70.1339 155.371 69.4561 156.513 69.1051 157.77C68.7542 159.026 68.7425 160.353 69.0713 161.616C69.4001 162.879 70.0577 164.032 70.9775 164.96Z" fill="#55789B"/>
<path opacity="0.46" d="M70.9775 164.96C78.0915 172.161 91.3211 180.63 112.169 176.259L109.5 153.273C109.5 153.273 91.0374 148.545 74.4347 152.581C73.1666 152.9 72.0058 153.549 71.0699 154.46C70.1339 155.371 69.4561 156.513 69.1051 157.77C68.7542 159.026 68.7425 160.353 69.0713 161.616C69.4001 162.879 70.0577 164.032 70.9775 164.96Z" fill="white"/>
<path d="M111.917 174.11C111.917 174.11 143.157 170.777 159.949 159.562L158.594 154.761C158.594 154.761 129.276 162.56 109.899 156.774L111.917 174.11Z" fill="#F4A28C"/>
<path d="M159.949 159.541C161.435 158.897 162.875 158.151 164.257 157.308C165.225 156.678 165.985 155.777 166.443 154.719C166.602 154.04 166.616 153.336 166.484 152.651C166.352 151.967 166.077 151.318 165.676 150.747C165.514 150.482 165.273 150.274 164.986 150.154C164.699 150.033 164.382 150.006 164.079 150.076C163.753 150.216 163.465 150.432 163.238 150.705C162.671 151.323 162.103 151.941 161.546 152.57C161.545 151.995 161.475 151.421 161.336 150.862C161.336 150.747 161.252 150.6 161.126 150.589C161.049 150.588 160.975 150.614 160.916 150.663C159.434 151.648 157.669 153.587 158.142 155.254C158.488 156.501 159.602 158.304 159.949 159.541Z" fill="#F4A28C"/>
<path d="M61.8984 272.072C61.8984 272.072 60.2276 274.745 57.569 274.399C54.9105 274.053 53.6705 276.496 55.8877 277.638C58.105 278.78 64.8091 277.082 64.8091 277.082L65.6182 272.261L61.8984 272.072Z" fill="#55789B"/>
<path d="M287.675 150.799C288.742 151.099 289.724 151.645 290.54 152.394C291.357 153.143 291.985 154.073 292.374 155.109C292.763 156.145 292.901 157.258 292.779 158.358C292.656 159.457 292.276 160.512 291.668 161.438C288.841 165.819 283.419 171.689 273.237 176.112C254.711 184.173 229.103 163.073 229.103 163.073C229.103 163.073 222.798 161.102 223.502 157.57C224.206 154.038 231.278 159.3 231.278 159.3C231.278 159.3 244.161 168.932 259.093 164.299C271.24 160.547 278.375 148.231 287.675 150.799Z" fill="#F4A28C"/>
<path d="M143.263 92.8141C143.863 93.9634 144.688 94.9808 145.689 95.806C146.69 96.6312 147.848 97.2473 149.093 97.6178C150.337 97.9883 151.644 98.1057 152.935 97.9629C154.226 97.8201 155.475 97.4201 156.608 96.7867C166.633 91.1685 183.309 83.9571 188.931 71.945C196.224 56.3692 164.416 35.9194 164.416 35.9194L159.824 41.1603C159.824 41.1603 201.047 67.0501 149.231 77.1964C142.632 78.4961 140.142 86.9024 143.263 92.8455V92.8141Z" fill="#55789B"/>
<path opacity="0.46" d="M143.263 92.8141C143.863 93.9634 144.688 94.9808 145.689 95.806C146.69 96.6312 147.848 97.2473 149.093 97.6178C150.337 97.9883 151.644 98.1057 152.935 97.9629C154.226 97.8201 155.475 97.4201 156.608 96.7867C166.633 91.1685 183.309 83.9571 188.931 71.945C196.224 56.3692 164.416 35.9194 164.416 35.9194L159.824 41.1603C159.824 41.1603 201.047 67.0501 149.231 77.1964C142.632 78.4961 140.142 86.9024 143.263 92.8455V92.8141Z" fill="white"/>
<path d="M235.324 99.47C235.324 99.47 237.562 98.0655 237.268 95.8329C236.974 93.6002 239.002 92.5416 239.99 94.3969C240.978 96.2521 239.569 101.902 239.569 101.902L235.492 102.604L235.324 99.47Z" fill="#55789B"/>
<path d="M238.582 146.722C238.582 146.722 241.051 147.686 242.68 146.114C244.309 144.542 246.358 145.537 245.454 147.445C244.55 149.353 239.149 151.564 239.149 151.564L236.154 148.724L238.582 146.722Z" fill="#55789B"/>
<path d="M124.947 73.4858C127.005 74.9776 128.85 76.7406 130.433 78.7267C130.767 79.2251 130.891 79.8351 130.777 80.424C130.663 81.013 130.32 81.5331 129.823 81.8712C129.054 82.4648 128.13 82.825 127.161 82.9086C126.192 82.9922 125.219 82.7958 124.359 82.3428L120.471 80.7391C119.73 80.342 119.13 79.7259 118.754 78.9752C118.377 78.2246 118.243 77.3762 118.369 76.5465C118.643 73.402 122.793 71.7249 124.947 73.4858Z" fill="#F4A28C"/>
<path d="M121.133 81.0535L130.674 92.51L136.632 86.8185L127.301 80.7705L121.133 81.0535Z" fill="#F4A28C"/>
<path d="M124.348 74.4398C123.461 75.5354 122.449 76.5239 121.332 77.3852C122.069 77.4819 122.761 77.7929 123.321 78.2795C123.882 78.766 124.287 79.4064 124.485 80.1209C124.678 80.8078 124.632 81.54 124.353 82.1972C124.074 82.8543 123.579 83.3974 122.95 83.7371L118.6 79.8274C117.958 79.2921 117.475 78.5929 117.201 77.8045C116.927 77.0161 116.873 76.1683 117.045 75.3517C117.185 74.6406 117.374 73.9401 117.612 73.2554C118.211 71.5468 120.691 70.4358 120.828 68.5491C120.828 68.3535 120.883 68.162 120.987 67.9961C121.091 67.8303 121.24 67.6967 121.416 67.6106C121.592 67.5244 121.788 67.4891 121.983 67.5086C122.178 67.5282 122.364 67.6017 122.52 67.721C124.033 68.6958 125.924 70.7712 125.073 73.2239C124.901 73.6665 124.656 74.0775 124.348 74.4398Z" fill="#24285B"/>
<path d="M124.685 79.6704C124.685 79.6704 123.35 78.5384 122.583 79.618C121.816 80.6976 123.739 82.3328 125.095 81.1483L124.685 79.6704Z" fill="#F4A28C"/>
<path d="M127.175 75.2886L129.276 75.4877C129.392 75.5019 129.503 75.5437 129.599 75.6098C129.695 75.6758 129.774 75.764 129.829 75.8669C129.884 75.9698 129.913 76.0844 129.913 76.2009C129.914 76.3173 129.887 76.4323 129.833 76.5359L128.94 78.0557L127.175 75.2886Z" fill="#F4A28C"/>
<path opacity="0.31" d="M129.381 82.0073C128.511 82.6055 127.485 82.937 126.429 82.9612C128.236 84.1226 130.417 84.5606 132.534 84.1875L129.381 82.0073Z" fill="#CE8172"/>
<path d="M130.674 92.5101L134.73 88.6319C135.718 87.6899 136.651 86.6925 137.525 85.6446C140.31 82.2695 149.431 73.0036 162.902 77.406C179.232 82.7307 188.563 114.364 188.563 114.364L169.932 135.695C169.932 135.695 105.213 123.641 130.674 92.5101Z" fill="#55789B"/>
<path d="M160.685 40.1435C160.685 40.1435 153.466 36.9256 152.898 33.8545C152.331 30.7833 158.468 35.4791 158.468 35.4791C158.468 35.4791 161.347 30.0496 164.415 35.8879L160.685 40.1435Z" fill="#F4A28C"/>
<path d="M159.014 36.475C159.014 36.475 154.075 31.2342 155.662 30.186C157.249 29.1378 161.074 35.1858 161.074 35.1858L159.014 36.475Z" fill="#F4A28C"/>
<path d="M169.932 135.674C169.932 135.674 183.687 147.12 191.914 136.502C200.142 125.884 201.561 101.084 235.649 103.38L235.376 97.7513C235.376 97.7513 208.612 87.343 187.175 110.246L169.932 135.674Z" fill="#24285B"/>
<path d="M180.924 140.286C180.924 140.286 207.194 122.1 233.779 150.568L238.582 146.722C238.582 146.722 222.819 115.643 182.479 120.234L180.924 140.286Z" fill="#24285B"/>
<path opacity="0.08" d="M144.24 99.6899C144.24 99.6899 150.419 102.834 154.327 114.364C158.236 125.894 178.412 123.242 178.412 123.242L169.932 135.736C169.932 135.736 149.01 131.313 137.725 124.091C126.439 116.869 143.946 100.392 143.946 100.392L144.24 99.6899Z" fill="black"/>
<path d="M130.769 117.163C146.079 123.631 180.577 132.362 188.027 84.125L181.155 81.4521C181.155 81.4521 167.494 113.767 140.72 99.009C139.724 98.4458 138.692 97.9486 137.63 97.5206C132.87 95.6339 121.007 92.0596 121.154 103.223C121.231 106.225 122.181 109.141 123.888 111.616C125.595 114.09 127.985 116.018 130.769 117.163Z" fill="#55789B"/>
<path opacity="0.46" d="M130.769 117.163C146.079 123.631 180.577 132.362 188.027 84.125L181.155 81.4521C181.155 81.4521 167.494 113.767 140.72 99.009C139.724 98.4458 138.692 97.9486 137.63 97.5206C132.87 95.6339 121.007 92.0596 121.154 103.223C121.231 106.225 122.181 109.141 123.888 111.616C125.595 114.09 127.985 116.018 130.769 117.163Z" fill="white"/>
<path d="M182.374 81.9237C182.815 79.5407 183.906 77.3249 185.526 75.5193C188.017 73.0457 190.56 73.423 191.968 75.3516C193.376 77.2803 187.176 80.4772 187.176 80.4772L187.05 83.737L182.374 81.9237Z" fill="#F4A28C"/>
<path opacity="0.5" d="M84.7657 100.92L69.9834 109.592L72.3113 113.54L87.0936 104.868L84.7657 100.92Z" fill="#E6E6E6"/>
<path opacity="0.5" d="M255.634 102.413L272.221 98.0664L271.054 93.6362L254.468 97.9828L255.634 102.413Z" fill="#E6E6E6"/>
<path opacity="0.5" d="M214.476 70.0869L226.144 73.8506L227.152 70.739L215.484 66.9753L214.476 70.0869Z" fill="#E6E6E6"/>
<path opacity="0.5" d="M262.545 64.1839L257.307 75.2437L260.271 76.6407L265.51 65.5809L262.545 64.1839Z" fill="#E6E6E6"/>
<path opacity="0.5" d="M203.927 151.579L198.688 162.639L201.653 164.036L206.892 152.976L203.927 151.579Z" fill="#E6E6E6"/>
<path opacity="0.5" d="M293.895 82.807L306.042 84.4819L306.491 81.2424L294.343 79.5676L293.895 82.807Z" fill="#E6E6E6"/>
<path opacity="0.5" d="M97.6526 86.5618L109.465 89.8472L110.345 86.697L98.5331 83.4117L97.6526 86.5618Z" fill="#E6E6E6"/>
<path opacity="0.5" d="M137.816 62.6275L149.832 60.1846L149.177 56.9802L137.161 59.423L137.816 62.6275Z" fill="#E6E6E6"/>
<path opacity="0.5" d="M78.3474 65.856L90.3633 63.4131L89.7085 60.2087L77.6926 62.6516L78.3474 65.856Z" fill="#E6E6E6"/>
</svg>
